<svg version="1.1" id="Layer_1" xmlns="http://www.w3.org/2000/svg" xmlns:xlink="http://www.w3.org/1999/xlink" x="0px" y="0px"
	 width="100%" viewBox="0 0 394 404" enable-background="new 0 0 394 404" xml:space="preserve">
<path fill="#000000" opacity="1.000000" stroke="none" 
	d="
M218.000000,405.000000 
	C145.355942,405.000000 73.211876,405.000000 1.033906,405.000000 
	C1.033906,270.398132 1.033906,135.796234 1.033906,1.097177 
	C132.227356,1.097177 263.454803,1.097177 394.841125,1.097177 
	C394.841125,135.666519 394.841125,270.333252 394.841125,405.000000 
	C336.129639,405.000000 277.314819,405.000000 218.000000,405.000000 
M166.584595,166.008972 
	C165.342056,166.101654 164.099518,166.194336 162.471939,166.315735 
	C168.255325,189.034073 173.941254,211.369522 179.656815,233.821381 
	C183.225586,233.821381 186.505692,233.821381 190.014084,233.821381 
	C193.856583,219.783661 197.698471,205.748199 201.540359,191.712738 
	C201.866653,191.779846 202.192932,191.846939 202.519211,191.914047 
	C206.332581,205.948669 210.145950,219.983276 213.872940,233.699966 
	C217.741638,233.699966 221.000381,233.699966 224.354797,233.699966 
	C230.099899,211.100388 235.775635,188.773651 241.521088,166.172668 
	C236.875763,166.172668 232.749649,166.172668 228.380219,166.172668 
	C225.201355,180.088211 222.045181,193.904434 218.571869,209.108963 
	C214.318192,193.876938 210.452240,180.033386 206.593582,166.215881 
	C203.292984,166.215881 200.335815,166.215881 197.370255,166.215881 
	C193.468185,180.138336 189.619019,193.872070 185.769836,207.605820 
	C185.507172,207.584045 185.244507,207.562271 184.981842,207.540482 
	C181.869263,193.812576 178.756668,180.084656 175.565231,166.008957 
	C172.807083,166.008957 170.166733,166.008957 166.584595,166.008972 
M96.407661,234.022491 
	C99.919350,234.480865 98.981636,231.882401 98.987335,230.114746 
	C99.029205,217.128464 99.009956,204.141983 99.009956,191.155563 
	C99.009956,182.882309 99.009956,174.609039 99.009956,166.243042 
	C94.631554,166.243042 90.726730,166.243042 86.279327,166.243042 
	C86.279327,180.313278 86.279327,194.154526 86.279327,207.995758 
	C84.498207,206.946838 83.604683,205.658264 82.750122,204.344376 
	C75.139511,192.642929 67.464378,180.982300 59.989529,169.194702 
	C58.472176,166.801880 56.878696,165.658203 54.019386,165.953354 
	C51.610287,166.202026 49.155128,166.004532 46.644577,166.004532 
	C46.644577,188.960709 46.644577,211.355011 46.644577,233.769928 
	C50.850853,233.769928 54.771236,233.769928 59.133186,233.769928 
	C59.133186,219.517578 59.133186,205.513916 59.133186,190.252121 
	C67.584671,203.288177 75.580116,215.072144 82.942627,227.239120 
	C86.016876,232.319489 89.351639,235.311066 96.407661,234.022491 
M302.923279,170.612518 
	C302.923279,191.672119 302.923279,212.731720 302.923279,233.887482 
	C307.298370,233.887482 311.091614,233.887482 315.216858,233.887482 
	C315.216858,224.659897 315.216858,215.551086 315.216858,206.002853 
	C317.017639,206.002853 318.520874,206.204941 319.950348,205.965881 
	C324.699493,205.171616 327.345734,206.867691 329.272217,211.526108 
	C332.433228,219.169540 336.492157,226.441666 340.080505,233.684784 
	C345.019745,233.684784 349.704376,233.684784 354.792114,233.684784 
	C349.501770,223.678253 344.438324,214.100876 339.399292,204.569733 
	C350.076355,197.777954 353.702057,189.597122 350.774384,179.632416 
	C348.255341,171.058533 340.191162,166.052979 328.784851,166.019180 
	C321.297516,165.997009 313.805542,166.165451 306.324921,165.940140 
	C303.313904,165.849457 302.508484,166.979523 302.923279,170.612518 
M117.024033,172.508820 
	C112.134354,177.116440 109.936028,182.842575 109.944626,189.494812 
	C109.953674,196.492065 109.799576,203.493225 109.981567,210.485764 
	C110.287231,222.230301 117.357307,231.150391 128.183044,233.789398 
	C139.588120,236.569656 152.116623,232.470230 156.425980,222.208206 
	C162.445724,207.873169 162.787460,192.160126 156.469009,178.060959 
	C149.944885,163.502930 131.034653,161.398376 117.024033,172.508820 
M289.645905,234.019073 
	C292.067139,234.019073 294.488373,234.019073 297.319580,234.019073 
	C296.821930,232.517258 296.543640,231.587234 296.208160,230.678345 
	C289.315491,212.006714 282.424133,193.334610 275.515289,174.668961 
	C272.148621,165.573257 272.132782,165.579117 262.042908,166.235016 
	C253.740509,188.643356 245.401596,211.150208 237.022736,233.764893 
	C249.893143,234.671310 249.893509,234.671432 254.011429,223.230087 
	C254.123718,222.918060 254.107224,222.460739 254.321945,222.300568 
	C255.715820,221.260727 257.112579,219.509277 258.590820,219.424225 
	C264.397949,219.090134 270.244263,219.118011 276.055573,219.413635 
	C277.409790,219.482544 279.302856,220.848785 279.878967,222.107422 
	C281.642639,225.960541 282.886292,230.051712 284.320892,234.019028 
	C286.079498,234.019028 287.407928,234.019028 289.645905,234.019073 
z"/>
<path fill="#FAFAFA" opacity="1.000000" stroke="none" 
	d="
M167.055496,166.008972 
	C170.166733,166.008957 172.807083,166.008957 175.565231,166.008957 
	C178.756668,180.084656 181.869263,193.812576 184.981842,207.540482 
	C185.244507,207.562271 185.507172,207.584045 185.769836,207.605820 
	C189.619019,193.872070 193.468185,180.138336 197.370255,166.215881 
	C200.335815,166.215881 203.292984,166.215881 206.593582,166.215881 
	C210.452240,180.033386 214.318192,193.876938 218.571869,209.108963 
	C222.045181,193.904434 225.201355,180.088211 228.380219,166.172668 
	C232.749649,166.172668 236.875763,166.172668 241.521088,166.172668 
	C235.775635,188.773651 230.099899,211.100388 224.354797,233.699966 
	C221.000381,233.699966 217.741638,233.699966 213.872940,233.699966 
	C210.145950,219.983276 206.332581,205.948669 202.519211,191.914047 
	C202.192932,191.846939 201.866653,191.779846 201.540359,191.712738 
	C197.698471,205.748199 193.856583,219.783661 190.014084,233.821381 
	C186.505692,233.821381 183.225586,233.821381 179.656815,233.821381 
	C173.941254,211.369522 168.255325,189.034073 162.471939,166.315735 
	C164.099518,166.194336 165.342056,166.101654 167.055496,166.008972 
z"/>
<path fill="#F8F8F8" opacity="1.000000" stroke="none" 
	d="
M95.934219,234.023117 
	C89.351639,235.311066 86.016876,232.319489 82.942627,227.239120 
	C75.580116,215.072144 67.584671,203.288177 59.133186,190.252121 
	C59.133186,205.513916 59.133186,219.517578 59.133186,233.769928 
	C54.771236,233.769928 50.850853,233.769928 46.644577,233.769928 
	C46.644577,211.355011 46.644577,188.960709 46.644577,166.004532 
	C49.155128,166.004532 51.610287,166.202026 54.019386,165.953354 
	C56.878696,165.658203 58.472176,166.801880 59.989529,169.194702 
	C67.464378,180.982300 75.139511,192.642929 82.750122,204.344376 
	C83.604683,205.658264 84.498207,206.946838 86.279327,207.995758 
	C86.279327,194.154526 86.279327,180.313278 86.279327,166.243042 
	C90.726730,166.243042 94.631554,166.243042 99.009956,166.243042 
	C99.009956,174.609039 99.009956,182.882309 99.009956,191.155563 
	C99.009956,204.141983 99.029205,217.128464 98.987335,230.114746 
	C98.981636,231.882401 99.919350,234.480865 95.934219,234.023117 
z"/>
<path fill="#FDFDFD" opacity="1.000000" stroke="none" 
	d="
M302.923157,170.125946 
	C302.508484,166.979523 303.313904,165.849457 306.324921,165.940140 
	C313.805542,166.165451 321.297516,165.997009 328.784851,166.019180 
	C340.191162,166.052979 348.255341,171.058533 350.774384,179.632416 
	C353.702057,189.597122 350.076355,197.777954 339.399292,204.569733 
	C344.438324,214.100876 349.501770,223.678253 354.792114,233.684784 
	C349.704376,233.684784 345.019745,233.684784 340.080505,233.684784 
	C336.492157,226.441666 332.433228,219.169540 329.272217,211.526108 
	C327.345734,206.867691 324.699493,205.171616 319.950348,205.965881 
	C318.520874,206.204941 317.017639,206.002853 315.216858,206.002853 
	C315.216858,215.551086 315.216858,224.659897 315.216858,233.887482 
	C311.091614,233.887482 307.298370,233.887482 302.923279,233.887482 
	C302.923279,212.731720 302.923279,191.672119 302.923157,170.125946 
M316.094727,177.377243 
	C315.728027,183.050049 315.361298,188.722870 314.977264,194.663818 
	C321.096100,194.663818 326.399750,195.054306 331.618073,194.554245 
	C336.860382,194.051880 340.063782,189.756744 339.702057,184.931732 
	C339.351196,180.251572 336.500641,177.572815 330.942566,177.269608 
	C326.305420,177.016663 321.644562,177.198563 316.094727,177.377243 
z"/>
<path fill="#FAFAFA" opacity="1.000000" stroke="none" 
	d="
M117.286819,172.265793 
	C131.034653,161.398376 149.944885,163.502930 156.469009,178.060959 
	C162.787460,192.160126 162.445724,207.873169 156.425980,222.208206 
	C152.116623,232.470230 139.588120,236.569656 128.183044,233.789398 
	C117.357307,231.150391 110.287231,222.230301 109.981567,210.485764 
	C109.799576,203.493225 109.953674,196.492065 109.944626,189.494812 
	C109.936028,182.842575 112.134354,177.116440 117.286819,172.265793 
M122.249016,205.195312 
	C122.450188,207.344193 122.573334,209.503799 122.867180,211.639938 
	C123.749130,218.051422 128.292419,222.065033 134.644897,222.128799 
	C140.972885,222.192322 146.309494,218.226013 146.733383,211.983536 
	C147.271912,204.052689 147.265457,196.032654 146.751648,188.099167 
	C146.347000,181.851364 141.044479,177.872894 134.693497,177.917435 
	C128.309830,177.962204 123.564865,181.936935 122.918777,188.353699 
	C122.387886,193.626312 122.430649,198.956696 122.249016,205.195312 
z"/>
<path fill="#FBFBFB" opacity="1.000000" stroke="none" 
	d="
M289.191132,234.019043 
	C287.407928,234.019028 286.079498,234.019028 284.320892,234.019028 
	C282.886292,230.051712 281.642639,225.960541 279.878967,222.107422 
	C279.302856,220.848785 277.409790,219.482544 276.055573,219.413635 
	C270.244263,219.118011 264.397949,219.090134 258.590820,219.424225 
	C257.112579,219.509277 255.715820,221.260727 254.321945,222.300568 
	C254.107224,222.460739 254.123718,222.918060 254.011429,223.230087 
	C249.893509,234.671432 249.893143,234.671310 237.022736,233.764893 
	C245.401596,211.150208 253.740509,188.643356 262.042908,166.235016 
	C272.132782,165.579117 272.148621,165.573257 275.515289,174.668961 
	C282.424133,193.334610 289.315491,212.006714 296.208160,230.678345 
	C296.543640,231.587234 296.821930,232.517258 297.319580,234.019073 
	C294.488373,234.019073 292.067139,234.019073 289.191132,234.019043 
M273.915741,203.752472 
	C271.818237,197.638565 269.720764,191.524643 267.210236,184.206802 
	C264.321747,192.810532 261.828461,200.237015 259.236206,207.958435 
	C264.808502,207.958435 269.756104,207.958435 274.678314,207.958435 
	C274.780273,207.512711 274.970825,207.172287 274.898804,206.901733 
	C274.687134,206.106354 274.371277,205.338699 273.915741,203.752472 
z"/>
<path fill="#0B0B0B" opacity="1.000000" stroke="none" 
	d="
M316.544464,177.282562 
	C321.644562,177.198563 326.305420,177.016663 330.942566,177.269608 
	C336.500641,177.572815 339.351196,180.251572 339.702057,184.931732 
	C340.063782,189.756744 336.860382,194.051880 331.618073,194.554245 
	C326.399750,195.054306 321.096100,194.663818 314.977264,194.663818 
	C315.361298,188.722870 315.728027,183.050049 316.544464,177.282562 
z"/>
<path fill="#040404" opacity="1.000000" stroke="none" 
	d="
M122.234085,204.728394 
	C122.430649,198.956696 122.387886,193.626312 122.918777,188.353699 
	C123.564865,181.936935 128.309830,177.962204 134.693497,177.917435 
	C141.044479,177.872894 146.347000,181.851364 146.751648,188.099167 
	C147.265457,196.032654 147.271912,204.052689 146.733383,211.983536 
	C146.309494,218.226013 140.972885,222.192322 134.644897,222.128799 
	C128.292419,222.065033 123.749130,218.051422 122.867180,211.639938 
	C122.573334,209.503799 122.450188,207.344193 122.234085,204.728394 
z"/>
<path fill="#070707" opacity="1.000000" stroke="none" 
	d="
M274.005981,204.156342 
	C274.371277,205.338699 274.687134,206.106354 274.898804,206.901733 
	C274.970825,207.172287 274.780273,207.512711 274.678314,207.958435 
	C269.756104,207.958435 264.808502,207.958435 259.236206,207.958435 
	C261.828461,200.237015 264.321747,192.810532 267.210236,184.206802 
	C269.720764,191.524643 271.818237,197.638565 274.005981,204.156342 
z"/>
</svg>